<svg width="640" height="360" viewBox="0 0 640 360" fill="none" xmlns="http://www.w3.org/2000/svg">
  <rect width="640" height="360" rx="24" fill="url(#gradient)" />
  <rect x="116" y="72" width="408" height="216" rx="24" fill="#111827" fill-opacity="0.75" />
  <path d="M273.5 144.5C273.5 136.216 280.216 129.5 288.5 129.5H351.5C359.784 129.5 366.5 136.216 366.5 144.5V215.5C366.5 223.784 359.784 230.5 351.5 230.5H288.5C280.216 230.5 273.5 223.784 273.5 215.5V144.5Z" fill="#1F2937" stroke="#E5E7EB" stroke-width="3"/>
  <path d="M312 170C312 167.239 314.239 165 317 165L335 165C337.761 165 340 167.239 340 170V190C340 192.761 337.761 195 335 195L317 195C314.239 195 312 192.761 312 190V170Z" fill="#2563EB"/>
  <path d="M327.169 181.536C327.527 181.759 327.527 182.241 327.169 182.464L321.573 185.982C321.24 186.191 320.819 185.951 320.819 185.518V178.482C320.819 178.049 321.24 177.809 321.573 178.018L327.169 181.536Z" fill="white"/>
  <defs>
    <linearGradient id="gradient" x1="0" y1="0" x2="640" y2="360" gradientUnits="userSpaceOnUse">
      <stop stop-color="#1E293B"/>
      <stop offset="1" stop-color="#0F172A"/>
    </linearGradient>
  </defs>
</svg>










